<?xml version="1.0" standalone="no"?>
<!DOCTYPE svg PUBLIC "-//W3C//DTD SVG 20010904//EN"
 "http://www.w3.org/TR/2001/REC-SVG-20010904/DTD/svg10.dtd">
<svg version="1.0" xmlns="http://www.w3.org/2000/svg"
 width="300.000000pt" height="160.000000pt" viewBox="0 0 300.000000 160.000000"
 preserveAspectRatio="xMidYMid meet">

<g transform="translate(0.000000,160.000000) scale(0.100000,-0.100000)"
fill="#000000" stroke="none">
<path d="M1688 1263 c7 -3 16 -2 19 1 4 3 -2 6 -13 5 -11 0 -14 -3 -6 -6z"/>
<path d="M1380 1205 c-7 -8 -10 -26 -8 -40 3 -16 -1 -30 -13 -41 -47 -43 2
-105 55 -70 14 9 28 27 32 41 3 13 13 26 22 28 10 3 -1 5 -23 5 -22 0 -32 -2
-22 -5 20 -5 20 -8 7 -33 -16 -30 -48 -44 -66 -29 -20 16 -18 35 7 60 13 13
18 27 14 40 -7 23 10 49 32 49 11 0 14 -7 9 -27 -5 -23 -4 -25 5 -10 23 38
-22 67 -51 32z"/>
<path d="M1253 1172 c-9 -23 -22 -42 -30 -42 -8 0 -27 -15 -44 -32 -27 -30
-29 -31 -29 -10 0 31 -33 29 -55 -5 -18 -27 -18 -27 -26 -5 -12 33 -37 27 -56
-13 -16 -33 -36 -45 -47 -26 -3 4 4 25 14 47 22 42 25 70 10 79 -27 17 -68
-124 -56 -190 9 -45 29 -41 36 6 5 31 8 34 35 32 16 -1 37 5 47 14 14 13 21
13 33 3 12 -10 19 -8 41 9 21 16 29 18 44 9 14 -9 22 -9 32 0 8 6 24 8 37 5
22 -6 41 9 41 32 -1 6 -5 2 -11 -7 -5 -10 -14 -18 -19 -18 -16 0 -12 35 10 91
12 28 18 54 15 57 -3 3 -13 -13 -22 -36z m-263 -26 c0 -1 -5 -17 -11 -35 -15
-43 -30 -40 -16 4 6 19 14 35 19 35 4 0 8 -2 8 -4z m225 -65 c-16 -33 -35 -41
-35 -16 0 17 39 60 47 52 2 -3 -3 -19 -12 -36z m-75 4 c0 -8 -4 -15 -9 -15
-13 0 -22 16 -14 24 11 11 23 6 23 -9z m-95 -39 c-19 -29 -35 -34 -35 -11 0 8
7 15 16 15 8 0 12 5 9 10 -9 15 5 34 17 22 6 -6 4 -19 -7 -36z m75 3 c0 -5 -7
-9 -15 -9 -15 0 -20 12 -9 23 8 8 24 -1 24 -14z m-160 -56 c0 -28 -3 -34 -10
-23 -13 20 -13 60 0 60 6 0 10 -17 10 -37z"/>
<path d="M1640 1177 c-14 -23 -30 -37 -50 -40 -31 -7 -66 -49 -55 -67 4 -7 18
-9 33 -5 15 4 28 1 32 -5 10 -17 47 4 55 30 11 33 27 23 20 -11 -7 -30 -6 -31
19 -27 15 3 29 1 32 -3 9 -16 36 -9 66 16 39 33 49 32 41 -7 -6 -28 -4 -31 15
-26 12 3 23 1 25 -5 2 -6 17 4 34 23 17 19 35 31 40 27 4 -5 0 -14 -10 -21
-24 -18 -22 -46 3 -46 11 0 29 -5 39 -12 31 -19 51 -3 51 43 l0 41 -39 -31
c-38 -30 -61 -39 -61 -23 0 4 9 13 20 20 22 13 17 42 -8 42 -8 0 -24 -8 -35
-17 -16 -14 -19 -15 -15 -3 2 8 14 20 25 25 33 17 53 36 53 51 0 38 -53 -2
-83 -62 -9 -17 -23 -34 -31 -37 -12 -5 -14 0 -9 24 5 28 5 29 -31 27 -20 -2
-36 -6 -36 -10 0 -4 -7 -14 -16 -22 -23 -24 -38 -9 -20 20 25 38 18 41 -13 6
-37 -39 -52 -41 -45 -4 4 24 -10 64 -18 52 -2 -3 -10 -18 -18 -34 -8 -16 -21
-31 -27 -34 -22 -7 -14 29 18 80 16 28 28 53 25 55 -3 3 -14 -10 -26 -30z
m-54 -82 c-20 -31 -53 -36 -36 -5 10 19 42 42 49 35 2 -3 -4 -16 -13 -30z
m425 -88 c-8 -8 -14 -7 -23 2 -11 10 -9 15 7 27 18 13 20 13 23 -2 2 -9 -1
-21 -7 -27z"/>
<path d="M113 556 c1 -133 5 -180 15 -184 9 -3 12 28 12 132 0 75 4 136 8 136
4 0 32 -25 62 -55 l54 -55 56 55 c31 30 58 55 60 55 3 0 5 -60 5 -132 0 -118
2 -133 18 -136 16 -3 17 11 17 180 l-1 183 -74 -77 c-40 -43 -77 -78 -81 -78
-5 0 -41 35 -81 78 l-72 77 2 -179z"/>
<path d="M607 716 c-95 -35 -142 -138 -106 -233 22 -59 100 -113 164 -113 46
0 109 34 141 76 25 33 29 46 29 104 0 57 -4 72 -28 103 -49 64 -129 89 -200
63z m143 -52 c79 -67 80 -160 1 -227 -61 -51 -136 -44 -190 18 -56 64 -50 147
15 205 29 25 43 30 89 30 43 0 59 -5 85 -26z"/>
<path d="M1682 557 c-40 -94 -72 -175 -72 -179 0 -5 6 -8 13 -8 8 0 21 18 30
40 l16 41 88 -3 88 -3 18 -37 c9 -21 24 -38 33 -38 9 0 14 6 11 13 -25 64
-141 334 -146 339 -4 4 -39 -70 -79 -165z m113 13 c15 -36 29 -71 32 -77 4
-10 -14 -13 -70 -13 l-75 0 36 85 c20 47 39 81 43 77 4 -4 19 -36 34 -72z"/>
<path d="M2342 557 c-40 -94 -72 -175 -72 -179 0 -5 6 -8 13 -8 8 0 21 18 30
40 l15 40 86 0 86 0 20 -40 c11 -22 28 -40 36 -40 9 0 14 6 11 13 -25 64 -141
334 -146 339 -4 4 -39 -70 -79 -165z m117 4 c17 -41 29 -76 27 -78 -2 -2 -35
-3 -73 -1 l-70 3 36 82 c19 46 38 79 42 75 4 -4 21 -40 38 -81z"/>
<path d="M920 705 c0 -12 17 -15 95 -15 52 0 95 -2 95 -5 0 -3 -41 -69 -91
-146 -50 -78 -93 -148 -96 -155 -4 -11 19 -14 126 -14 110 0 131 2 131 15 0
12 -18 15 -100 15 -55 0 -100 4 -100 8 0 5 33 60 73 123 40 63 83 131 96 152
l23 37 -126 0 c-105 0 -126 -2 -126 -15z"/>
<path d="M1270 705 c0 -12 17 -15 95 -15 52 0 95 -2 95 -5 0 -3 -41 -69 -91
-146 -50 -78 -93 -148 -96 -155 -4 -11 19 -14 126 -14 110 0 131 2 131 15 0
12 -18 15 -100 15 -55 0 -100 4 -100 8 0 5 33 60 73 123 40 63 83 131 96 152
l23 37 -126 0 c-105 0 -126 -2 -126 -15z"/>
<path d="M1990 544 l0 -176 71 4 c65 3 74 6 100 36 42 47 36 103 -14 144 -20
16 -21 17 -4 36 23 25 21 74 -4 106 -18 23 -27 26 -85 26 l-64 0 0 -176z m130
131 c18 -22 15 -66 -6 -82 -10 -7 -35 -13 -56 -13 l-38 0 0 55 0 55 44 0 c27
0 48 -6 56 -15z m-5 -131 c8 -4 23 -20 31 -36 13 -25 13 -35 3 -60 -14 -33
-43 -48 -95 -48 l-34 0 0 75 0 75 39 0 c22 0 47 -3 56 -6z"/>
<path d="M2650 545 c0 -149 2 -175 15 -175 12 0 15 16 15 80 l0 80 34 0 c31 0
37 -6 84 -80 28 -44 58 -80 67 -80 23 0 19 8 -35 90 -48 72 -49 76 -31 90 49
39 54 99 12 141 -27 26 -36 29 -95 29 l-66 0 0 -175z m126 137 c13 -9 34 -46
34 -62 0 -6 -11 -22 -25 -35 -18 -18 -35 -25 -65 -25 l-40 0 0 65 0 65 43 0
c23 0 47 -4 53 -8z"/>
<path d="M1274 205 c-4 -9 -4 -19 0 -22 3 -4 6 1 6 10 0 10 5 17 11 17 12 0 5
-29 -22 -82 -11 -21 -17 -38 -14 -38 3 0 17 24 30 53 l25 52 0 -50 1 -50 23
44 c15 29 25 40 29 30 4 -11 6 -10 6 3 1 9 4 25 8 35 12 33 -23 -4 -38 -40
l-14 -32 -5 40 c-5 42 -34 61 -46 30z"/>
<path d="M1522 192 c-6 -17 -18 -32 -26 -32 -8 0 -27 -15 -41 -32 -27 -33 -27
-33 -21 -6 3 15 1 30 -5 33 -14 9 -49 -23 -49 -45 0 -14 8 -17 48 -15 26 2 49
4 52 6 3 1 16 2 29 3 13 1 26 8 29 16 5 13 3 13 -12 1 -25 -21 -27 -10 -5 38
11 25 18 49 16 55 -2 6 -9 -4 -15 -22z m-92 -50 c0 -5 -9 -17 -20 -27 -16 -14
-20 -15 -20 -4 0 16 19 39 32 39 4 0 8 -4 8 -8z m70 0 c0 -5 -9 -17 -20 -27
-16 -14 -20 -15 -20 -4 0 16 19 39 32 39 4 0 8 -4 8 -8z"/>
<path d="M1700 190 c-7 -16 -18 -30 -26 -30 -7 0 -24 -12 -38 -27 -29 -31 -43
-26 -26 9 8 15 2 12 -19 -12 -30 -33 -31 -34 -25 -9 3 17 0 30 -10 38 -13 11
-16 11 -16 -3 0 -9 4 -16 10 -16 5 0 9 -10 7 -21 -2 -19 3 -21 46 -21 26 0 50
1 55 2 4 1 14 2 23 1 9 -1 22 6 30 16 13 16 12 17 -4 4 -28 -22 -30 -7 -8 45
12 26 20 49 17 51 -2 2 -9 -10 -16 -27z m-30 -59 c-5 -11 -15 -23 -20 -26 -14
-9 -12 19 2 33 19 19 30 14 18 -7z"/>
<path d="M1352 120 c0 -19 2 -27 5 -17 2 9 2 25 0 35 -3 9 -5 1 -5 -18z"/>
</g>
</svg>
